<?xml version="1.0" standalone="no"?>
<!DOCTYPE svg PUBLIC "-//W3C//DTD SVG 20010904//EN"
 "http://www.w3.org/TR/2001/REC-SVG-20010904/DTD/svg10.dtd">
<svg version="1.0" xmlns="http://www.w3.org/2000/svg"
 width="700.000000pt" height="700.000000pt" viewBox="0 0 700.000000 700.000000"
 preserveAspectRatio="xMidYMid meet">
<metadata>
Created by potrace 1.11, written by Peter Selinger 2001-2013
</metadata>
<g transform="translate(0.000000,700.000000) scale(0.100000,-0.100000)"
fill="#000000" stroke="none">
<path d="M3377 6964 c-1 -1 -54 -5 -117 -9 -63 -4 -122 -9 -131 -10 -9 -2 -40
-6 -70 -10 -510 -61 -1035 -256 -1474 -548 -93 -62 -267 -192 -320 -239 -294
-261 -471 -460 -652 -733 -69 -105 -212 -346 -212 -360 0 -3 -18 -42 -40 -88
-116 -242 -225 -582 -267 -827 -30 -181 -41 -269 -50 -405 -14 -207 -7 -482
15 -641 6 -38 13 -91 16 -119 3 -27 7 -57 10 -65 2 -8 6 -26 9 -40 14 -80 21
-115 43 -205 135 -552 440 -1114 822 -1514 29 -31 46 -45 37 -31 -37 57 -72
142 -92 220 -23 87 -28 306 -28 1260 l-1 895 258 3 c141 1 257 -1 258 -5 0 -5
2 -435 4 -958 2 -522 6 -964 9 -981 17 -99 83 -209 157 -265 108 -82 223 -113
424 -114 169 0 223 10 332 61 120 57 201 150 239 273 24 80 27 175 27 1094 l0
897 261 -2 261 -3 -1 -905 c-1 -498 -2 -945 -4 -993 -9 -275 -80 -450 -247
-615 -142 -139 -344 -241 -553 -281 -30 -6 -68 -13 -85 -17 -51 -10 -387 -13
-445 -4 -30 5 -75 12 -100 16 -69 10 -203 51 -278 84 -65 30 -66 30 -37 5 170
-141 500 -339 755 -452 203 -90 520 -194 670 -218 19 -3 42 -8 50 -10 21 -6
67 -14 120 -21 25 -3 52 -7 60 -9 8 -2 42 -7 75 -11 33 -3 94 -10 135 -14 69
-7 569 -5 615 3 22 4 93 13 168 22 26 3 71 10 100 16 29 6 66 13 82 15 141 24
469 124 650 198 103 43 357 169 397 197 14 11 29 19 33 19 16 0 296 194 400
277 171 137 299 260 475 458 197 222 406 557 549 882 77 176 188 533 215 698
3 17 10 53 15 80 5 28 12 77 16 110 3 33 8 69 10 80 18 88 26 500 13 665 -50
602 -270 1220 -604 1693 l-55 77 -894 0 -895 0 0 185 0 185 735 0 c404 0 735
2 735 5 0 3 -26 31 -57 61 -381 370 -848 655 -1333 812 -172 56 -333 97 -450
117 -19 3 -46 7 -60 10 -77 14 -223 32 -330 40 -74 6 -369 13 -373 9z m2697
-1560 c307 -75 487 -387 485 -844 0 -130 -4 -167 -35 -316 -16 -82 -95 -249
-155 -330 -71 -97 -221 -227 -239 -208 -15 17 -201 284 -205 297 -3 6 7 21 22
32 130 95 216 232 254 405 20 92 17 299 -5 373 -21 67 -65 130 -122 170 -76
53 -208 40 -265 -25 -35 -40 -68 -122 -99 -244 -17 -66 -33 -135 -36 -154 -3
-19 -12 -60 -19 -90 -8 -30 -16 -66 -19 -80 -29 -136 -69 -257 -110 -327 -71
-121 -186 -208 -316 -239 -66 -16 -188 -17 -250 -3 -25 6 -53 12 -63 14 -38 8
-145 68 -190 107 -195 166 -291 509 -235 838 27 154 70 264 149 382 68 99 230
252 248 232 47 -52 221 -298 214 -303 -4 -4 -28 -23 -53 -41 -84 -63 -153
-148 -190 -235 -11 -25 -17 -45 -15 -45 2 0 -2 -17 -9 -37 -19 -57 -24 -161
-13 -250 15 -113 78 -222 149 -259 17 -9 51 -18 77 -20 58 -6 126 26 158 74
25 38 59 123 66 167 3 17 12 62 21 100 8 39 17 82 20 95 23 117 61 266 86 343
87 261 247 414 455 434 33 3 61 6 62 7 7 6 126 -7 177 -20z"/>
</g>
</svg>
